<?xml version="1.0" standalone="no"?>
<!DOCTYPE svg PUBLIC "-//W3C//DTD SVG 20010904//EN"
 "http://www.w3.org/TR/2001/REC-SVG-20010904/DTD/svg10.dtd">
<svg version="1.0" xmlns="http://www.w3.org/2000/svg"
 width="700.000000pt" height="700.000000pt" viewBox="0 0 700.000000 700.000000"
 preserveAspectRatio="xMidYMid meet">
<metadata>
Created by potrace 1.11, written by Peter Selinger 2001-2013
</metadata>
<g transform="translate(0.000000,700.000000) scale(0.100000,-0.100000)"
fill="#000000" stroke="none">
<path d="M805 6812 c-9 -2 -62 -50 -117 -105 l-98 -102 5 -160 c7 -195 14
-405 20 -545 2 -58 7 -188 11 -290 3 -102 7 -201 8 -220 3 -50 -3 -61 -33 -60
-14 1 -67 2 -118 1 -82 -1 -95 -4 -120 -25 l-27 -24 -1 -453 c-1 -253 3 -466
8 -482 12 -35 40 -54 92 -61 22 -3 51 -8 65 -11 14 -2 48 -7 75 -10 79 -9 102
-15 102 -28 0 -7 4 -95 7 -197 4 -102 9 -230 11 -285 2 -55 7 -170 10 -255 3
-85 8 -202 10 -260 2 -58 7 -172 10 -255 3 -82 8 -208 10 -280 3 -71 7 -188
10 -260 11 -303 16 -416 20 -515 2 -58 7 -181 10 -275 4 -93 8 -193 9 -220 2
-45 10 -62 67 -141 l64 -91 110 -43 c61 -23 124 -48 140 -55 17 -7 50 -20 75
-30 25 -9 59 -23 75 -30 47 -20 799 -319 810 -322 11 -2 776 -307 810 -323 11
-5 125 -50 254 -101 219 -87 239 -93 310 -94 58 -1 89 4 131 22 49 20 425 169
1880 748 217 86 436 173 485 193 l90 36 65 90 c51 72 64 99 66 131 1 22 5 123
8 225 4 102 9 228 11 280 2 52 7 165 10 250 3 85 8 207 10 270 3 63 7 185 10
270 3 85 7 205 10 265 2 61 7 173 10 250 4 128 8 211 20 525 2 58 7 184 10
281 8 215 7 212 31 214 19 2 59 7 179 25 79 11 111 24 126 52 16 28 21 895 6
941 -16 49 -43 58 -174 58 l-120 1 3 51 c1 29 5 131 8 227 4 96 9 229 11 295
10 241 15 374 20 535 l5 165 -101 104 -101 104 -2692 1 c-1481 1 -2701 -1
-2711 -2z"/>
</g>
</svg>
